<svg xmlns="http://www.w3.org/2000/svg" xmlns:xlink="http://www.w3.org/1999/xlink" viewBox="0 0 430 430" width="430" height="430" preserveAspectRatio="xMidYMid meet" style="width: 100%; height: 100%; transform: translate3d(0px, 0px, 0px); content-visibility: visible;"><defs><clipPath id="__lottie_element_2704"><rect width="430" height="430" x="0" y="0"/></clipPath><clipPath id="__lottie_element_2706"><path d="M0,0 L430,0 L430,430 L0,430z"/></clipPath></defs><g clip-path="url(#__lottie_element_2704)"><g clip-path="url(#__lottie_element_2706)" transform="matrix(1,0,0,1,0,0)" opacity="1" style="display: block;"><g transform="matrix(1,0.0000031194199436868075,-0.0000031194199436868075,1,214.99977111816406,290.0003662109375)" opacity="1" style="display: block;"><g opacity="1" transform="matrix(1,0,0,1,0,0)"><path stroke-linecap="round" stroke-linejoin="round" fill-opacity="0" class="secondary" stroke="rgb(136,47,232)" stroke-opacity="1" stroke-width="12" d=" M-185,0 C-185,0 185,0 185,0"/></g></g><g transform="matrix(1,0.0000031194199436868075,-0.0000031194199436868075,1,215,215.00038146972656)" opacity="1" style="display: block;"><g opacity="1" transform="matrix(1,0,0,1,0,0)"><path stroke-linecap="round" stroke-linejoin="round" fill-opacity="0" class="primary" stroke="rgb(136,47,232)" stroke-opacity="1" stroke-width="12" d=" M-165,-135 C-176.04600524902344,-135 -185,-126.0459976196289 -185,-115 C-185,-115 -185,115 -185,115 C-185,126.0459976196289 -176.04600524902344,135 -165,135 C-165,135 165,135 165,135 C176.04600524902344,135 185,126.0459976196289 185,115 C185,115 185,-115 185,-115 C185,-126.0459976196289 176.04600524902344,-135 165,-135 C165,-135 -165,-135 -165,-135z"/></g></g><g transform="matrix(1,0.0000031194199436868075,-0.0000031194199436868075,1,317.4999694824219,220.00070190429688)" opacity="1" style="display: block;"><g opacity="1" transform="matrix(1,0,0,1,0,0)"><path stroke-linecap="round" stroke-linejoin="round" fill-opacity="0" class="primary" stroke="rgb(136,47,232)" stroke-opacity="1" stroke-width="12" d=" M-37.5,-25 C-37.5,-25 -12.5,0 -12.5,0 C-12.5,0 -37.5,25 -37.5,25"/></g><g opacity="1" transform="matrix(1,0,0,1,0,0)"><path stroke-linecap="round" stroke-linejoin="round" fill-opacity="0" class="primary" stroke="rgb(136,47,232)" stroke-opacity="1" stroke-width="12" d=" M12.5,-25 C12.5,-25 37.5,0 37.5,0 C37.5,0 12.5,25 12.5,25"/></g></g><g transform="matrix(1,0.0000031194199436868075,-0.0000031194199436868075,1,130.00009155273438,185.0001220703125)" opacity="1" style="display: block;"><g opacity="1" transform="matrix(1,0,0,1,0,0)"><path stroke-linecap="butt" stroke-linejoin="round" fill-opacity="0" class="primary" stroke="rgb(136,47,232)" stroke-opacity="1" stroke-width="12" d=" M-15,15 C-34.33000183105469,15 -50,30.670000076293945 -50,50 C-50,50 -50,60 -50,60 C-50,60 50,60 50,60 C50,60 50,50 50,50 C50,30.670000076293945 34.33000183105469,15 15,15 C15,15 -15,15 -15,15z M25,-35 C25,-21.19300079345703 13.807000160217285,-10 0,-10 C-13.807000160217285,-10 -25,-21.19300079345703 -25,-35 C-25,-48.80699920654297 -13.807000160217285,-60 0,-60 C13.807000160217285,-60 25,-48.80699920654297 25,-35z"/></g></g></g></g></svg>