<svg xmlns="http://www.w3.org/2000/svg" xmlns:xlink="http://www.w3.org/1999/xlink" viewBox="0 0 430 430" width="430" height="430" preserveAspectRatio="xMidYMid meet" style="width: 100%; height: 100%; transform: translate3d(0px, 0px, 0px); content-visibility: visible;"><defs><clipPath id="__lottie_element_1844"><rect width="430" height="430" x="0" y="0"/></clipPath><clipPath id="__lottie_element_1846"><path d="M0,0 L430,0 L430,430 L0,430z"/></clipPath></defs><g clip-path="url(#__lottie_element_1844)"><g clip-path="url(#__lottie_element_1846)" transform="matrix(1,0,0,1,0,0)" opacity="1" style="display: block;"><g transform="matrix(1.0198177099227905,0,0,0.9801823496818542,215,217.64434814453125)" opacity="1" style="display: block;"><g opacity="1" transform="matrix(1,0,0,1,0,0)"><path stroke-linecap="round" stroke-linejoin="round" fill-opacity="0" class="secondary" stroke="rgb(136,47,232)" stroke-opacity="1" stroke-width="12.6" d=" M0,80.05999755859375 C0,80.05999755859375 -106.74600219726562,80.05999755859375 -106.74600219726562,80.05999755859375 C-106.74600219726562,80.05999755859375 -106.74600219726562,12.446000099182129 -106.74600219726562,12.446000099182129 C-106.74600219726562,12.446000099182129 0,12.446000099182129 0,12.446000099182129 C0,12.446000099182129 0,80.05999755859375 0,80.05999755859375z"/></g><g opacity="1" transform="matrix(1,0,0,1,0,0)"><path stroke-linecap="round" stroke-linejoin="round" fill-opacity="0" class="secondary" stroke="rgb(136,47,232)" stroke-opacity="1" stroke-width="12.6" d=" M26.371000289916992,133.43299865722656 C26.371000289916992,133.43299865722656 26.371000289916992,13.343000411987305 26.371000289916992,13.343000411987305 C26.371000289916992,13.343000411987305 106.74600219726562,13.343000411987305 106.74600219726562,13.343000411987305 C106.74600219726562,13.343000411987305 106.74600219726562,133.43299865722656 106.74600219726562,133.43299865722656"/></g><g opacity="1" transform="matrix(1,0,0,1,0,0)"><path stroke-linecap="round" stroke-linejoin="round" fill-opacity="0" class="primary" stroke="rgb(136,47,232)" stroke-opacity="1" stroke-width="12.6" d=" M133.90118408203125,-19.579551696777344 C133.90118408203125,-19.579551696777344 133.43299865722656,133.43299865722656 133.43299865722656,133.43299865722656 C133.43299865722656,133.43299865722656 -133.43299865722656,133.43299865722656 -133.43299865722656,133.43299865722656 C-133.43299865722656,133.43299865722656 -132.9647979736328,-19.579551696777344 -132.9647979736328,-19.579551696777344"/></g><g opacity="1" transform="matrix(1,0,0,1,0,0)"><path stroke-linecap="round" stroke-linejoin="round" fill-opacity="0" class="primary" stroke="rgb(136,47,232)" stroke-opacity="1" stroke-width="12.6" d=" M-96.0719985961914,-56.04199981689453 C-96.0719985961914,-38.35599899291992 -113.63166046142578,-19.92258071899414 -131.31765747070312,-19.92258071899414 C-149.003662109375,-19.92258071899414 -160.11900329589844,-38.35599899291992 -160.11900329589844,-56.04199981689453 C-160.11900329589844,-56.04199981689453 -133.43299865722656,-133.43299865722656 -133.43299865722656,-133.43299865722656 C-133.43299865722656,-133.43299865722656 133.43299865722656,-133.43299865722656 133.43299865722656,-133.43299865722656 C133.43299865722656,-133.43299865722656 160.11900329589844,-56.04199981689453 160.11900329589844,-56.04199981689453 C160.11900329589844,-38.35599899291992 153.6408233642578,-19.92258071899414 132.16455078125,-19.92258071899414 C114.47854614257812,-19.92258071899414 96.0719985961914,-38.35599899291992 96.0719985961914,-56.04199981689453"/></g><g opacity="1" transform="matrix(1,0,0,1,0,0)"><path stroke-linecap="round" stroke-linejoin="round" fill-opacity="0" class="primary" stroke="rgb(136,47,232)" stroke-opacity="1" stroke-width="12.6" d=" M32.02399826049805,-56.04199981689453 C32.02399826049805,-38.35599899291992 17.80185317993164,-24.29580307006836 0.11585386842489243,-24.29580307006836 C-17.570146560668945,-24.29580307006836 -32.02399826049805,-38.35599899291992 -32.02399826049805,-56.04199981689453"/></g><g opacity="1" transform="matrix(1,0,0,1,0,0)"><path stroke-linecap="round" stroke-linejoin="round" fill-opacity="0" class="primary" stroke="rgb(136,47,232)" stroke-opacity="1" stroke-width="12.6" d=" M26.687000274658203,-133.43299865722656 C26.687000274658203,-133.43299865722656 32.02399826049805,-56.04199981689453 32.02399826049805,-56.04199981689453 C32.02399826049805,-38.35599899291992 46.71012496948242,-20.988380432128906 64.39612579345703,-20.988380432128906 C82.08212280273438,-20.988380432128906 96.0719985961914,-38.35599899291992 96.0719985961914,-56.04199981689453 C96.0719985961914,-56.04199981689453 80.05999755859375,-133.43299865722656 80.05999755859375,-133.43299865722656"/></g><g opacity="1" transform="matrix(1,0,0,1,0,0)"><path stroke-linecap="round" stroke-linejoin="round" fill-opacity="0" class="primary" stroke="rgb(136,47,232)" stroke-opacity="1" stroke-width="12.6" d=" M-80.05999755859375,-133.43299865722656 C-80.05999755859375,-133.43299865722656 -96.0719985961914,-56.04199981689453 -96.0719985961914,-56.04199981689453 C-96.0719985961914,-38.35599899291992 -81.3849868774414,-20.988380432128906 -63.6989860534668,-20.988380432128906 C-46.01298522949219,-20.988380432128906 -32.02399826049805,-38.35599899291992 -32.02399826049805,-56.04199981689453 C-32.02399826049805,-56.04199981689453 -26.687000274658203,-133.43299865722656 -26.687000274658203,-133.43299865722656"/></g></g></g></g></svg>