<svg xmlns="http://www.w3.org/2000/svg" xmlns:xlink="http://www.w3.org/1999/xlink" viewBox="0 0 430 430" width="430" height="430" preserveAspectRatio="xMidYMid meet" style="width: 100%; height: 100%; transform: translate3d(0px, 0px, 0px); content-visibility: visible;"><defs><clipPath id="__lottie_element_7265"><rect width="430" height="430" x="0" y="0"/></clipPath><clipPath id="__lottie_element_7267"><path d="M0,0 L430,0 L430,430 L0,430z"/></clipPath><g id="__lottie_element_7277"><g transform="matrix(1,0,0,1,215,215)" opacity="1" style="display: block;"><g opacity="1" transform="matrix(1,0,0,1,59,24.25)"><path stroke-linecap="butt" stroke-linejoin="miter" fill-opacity="0" stroke-miterlimit="4" class="primary" stroke="rgb(136,47,232)" stroke-opacity="1" stroke-width="0" d=" M101,-132.75 C101,-132.75 101,132.75 101,132.75 C101,132.75 -101,132.75 -101,132.75 C-101,132.75 -101,-132.75 -101,-132.75 C-101,-132.75 101,-132.75 101,-132.75z"/><path fill="rgb(255,0,0)" fill-opacity="1" d=" M101,-132.75 C101,-132.75 101,132.75 101,132.75 C101,132.75 -101,132.75 -101,132.75 C-101,132.75 -101,-132.75 -101,-132.75 C-101,-132.75 101,-132.75 101,-132.75z"/></g></g></g><mask id="__lottie_element_7277_1" mask-type="alpha"><use xmlns:ns1="http://www.w3.org/1999/xlink" ns1:href="#__lottie_element_7277"/></mask></defs><g clip-path="url(#__lottie_element_7265)"><g clip-path="url(#__lottie_element_7267)" transform="matrix(1,0,0,1,0,0)" opacity="1" style="display: block;"><g mask="url(#__lottie_element_7277_1)" style="display: block;"><g transform="matrix(1,0,0,1,-35,-313)" opacity="1"><g opacity="1" transform="matrix(1,0,0,1,0,278)"><g opacity="1" transform="matrix(1,0,0,1,0,0)"><g opacity="1" transform="matrix(1,0,0,1,294.40399169921875,321.99798583984375)"><path stroke-linecap="round" stroke-linejoin="round" fill-opacity="0" class="secondary" stroke="rgb(136,47,232)" stroke-opacity="1" stroke-width="12" d=" M-0.05900000035762787,0 C-0.05900000035762787,0 0.05900000035762787,0 0.05900000035762787,0"/></g><g opacity="1" transform="matrix(1,0,0,1,245.42100524902344,321.99798583984375)"><path stroke-linecap="round" stroke-linejoin="round" fill-opacity="0" class="secondary" stroke="rgb(136,47,232)" stroke-opacity="1" stroke-width="12" d=" M-0.05900000035762787,0 C-0.05900000035762787,0 0.05900000035762787,0 0.05900000035762787,0"/></g><g opacity="1" transform="matrix(1,0,0,1,269.9129943847656,321.99798583984375)"><path stroke-linecap="round" stroke-linejoin="round" fill-opacity="0" class="secondary" stroke="rgb(136,47,232)" stroke-opacity="1" stroke-width="12" d=" M-0.05900000035762787,0 C-0.05900000035762787,0 0.05900000035762787,0 0.05900000035762787,0"/></g></g><g opacity="1" transform="matrix(1,0,0,1,0,0)"><g opacity="1" transform="matrix(1,0,0,1,296.7699890136719,253.77499389648438)"><path stroke-linecap="round" stroke-linejoin="round" fill-opacity="0" class="primary" stroke="rgb(136,47,232)" stroke-opacity="1" stroke-width="12" d=" M38.119998931884766,21.815000534057617 C38.119998931884766,21.815000534057617 25.530000686645508,0.004999999888241291 25.530000686645508,0.004999999888241291 C25.530000686645508,0.004999999888241291 0,-44.224998474121094 0,-44.224998474121094 C0,-44.224998474121094 -25.530000686645508,0.004999999888241291 -25.530000686645508,0.004999999888241291 C-25.530000686645508,0.004999999888241291 -51.060001373291016,44.224998474121094 -51.060001373291016,44.224998474121094 C-51.060001373291016,44.224998474121094 25.190000534057617,44.224998474121094 25.190000534057617,44.224998474121094 C25.190000534057617,44.224998474121094 51.060001373291016,44.224998474121094 51.060001373291016,44.224998474121094"/></g><g opacity="1" transform="matrix(1,0,0,1,347.15301513671875,276.1759948730469)"><path stroke-linecap="round" stroke-linejoin="round" fill-opacity="0" class="primary" stroke="rgb(136,47,232)" stroke-opacity="1" stroke-width="12" d=" M0,-21.820999145507812 C0,-21.820999145507812 12.597999572753906,0 12.597999572753906,0 C12.597999572753906,0 25.19700050354004,21.820999145507812 25.19700050354004,21.820999145507812 C25.19700050354004,21.820999145507812 0,21.820999145507812 0,21.820999145507812 C0,21.820999145507812 -25.19700050354004,21.820999145507812 -25.19700050354004,21.820999145507812 C-25.19700050354004,21.820999145507812 -12.597999572753906,0 -12.597999572753906,0 C-12.597999572753906,0 0,-21.820999145507812 0,-21.820999145507812z"/></g><g opacity="1" transform="matrix(1,0,0,1,308.8680114746094,234.49099731445312)"><path stroke-linecap="round" stroke-linejoin="round" fill-opacity="0" class="primary" stroke="rgb(136,47,232)" stroke-opacity="1" stroke-width="12" d=" M63.50600051879883,63.50600051879883 C63.50600051879883,63.50600051879883 -63.50600051879883,63.50600051879883 -63.50600051879883,63.50600051879883 C-63.50600051879883,63.50600051879883 -63.50600051879883,-63.50600051879883 -63.50600051879883,-63.50600051879883 C-63.50600051879883,-63.50600051879883 63.50600051879883,-63.50600051879883 63.50600051879883,-63.50600051879883 C63.50600051879883,-63.50600051879883 63.50600051879883,63.50600051879883 63.50600051879883,63.50600051879883z"/></g><g opacity="1" transform="matrix(1,0,0,1,337.9739990234375,206.14500427246094)"><path stroke-linecap="round" stroke-linejoin="round" fill-opacity="0" class="secondary" stroke="rgb(136,47,232)" stroke-opacity="1" stroke-width="12" d=" M12.125,0 C12.125,-6.696000099182129 6.696000099182129,-12.125 0,-12.125 C-6.696000099182129,-12.125 -12.125,-6.696000099182129 -12.125,0 C-12.125,6.696000099182129 -6.696000099182129,12.125 0,12.125 C6.696000099182129,12.125 12.125,6.696000099182129 12.125,0z"/></g></g><g opacity="1" transform="matrix(1,0,0,1,308.8559875488281,350.9989929199219)"><path stroke-linecap="round" stroke-linejoin="round" fill-opacity="0" class="primary" stroke="rgb(136,47,232)" stroke-opacity="1" stroke-width="12" d=" M63.49399948120117,0 C63.49399948120117,0 -63.49399948120117,0 -63.49399948120117,0"/></g><g opacity="1" transform="matrix(1,0,0,1,277.1090087890625,378)"><path stroke-linecap="round" stroke-linejoin="round" fill-opacity="0" class="primary" stroke="rgb(136,47,232)" stroke-opacity="1" stroke-width="12" d=" M31.746999740600586,0 C31.746999740600586,0 -31.746999740600586,0 -31.746999740600586,0"/></g></g><g opacity="1" transform="matrix(1,0,0,1,0,0)"><g opacity="1" transform="matrix(1,0,0,1,0,0)"><g opacity="1" transform="matrix(1,0,0,1,294.40399169921875,321.99798583984375)"><path stroke-linecap="round" stroke-linejoin="round" fill-opacity="0" class="secondary" stroke="rgb(136,47,232)" stroke-opacity="1" stroke-width="12" d=" M-0.05900000035762787,0 C-0.05900000035762787,0 0.05900000035762787,0 0.05900000035762787,0"/></g><g opacity="1" transform="matrix(1,0,0,1,245.42100524902344,321.99798583984375)"><path stroke-linecap="round" stroke-linejoin="round" fill-opacity="0" class="secondary" stroke="rgb(136,47,232)" stroke-opacity="1" stroke-width="12" d=" M-0.05900000035762787,0 C-0.05900000035762787,0 0.05900000035762787,0 0.05900000035762787,0"/></g><g opacity="1" transform="matrix(1,0,0,1,269.9129943847656,321.99798583984375)"><path stroke-linecap="round" stroke-linejoin="round" fill-opacity="0" class="secondary" stroke="rgb(136,47,232)" stroke-opacity="1" stroke-width="12" d=" M-0.05900000035762787,0 C-0.05900000035762787,0 0.05900000035762787,0 0.05900000035762787,0"/></g></g><g opacity="1" transform="matrix(1,0,0,1,0,0)"><g opacity="1" transform="matrix(1,0,0,1,296.7699890136719,253.77499389648438)"><path stroke-linecap="round" stroke-linejoin="round" fill-opacity="0" class="primary" stroke="rgb(136,47,232)" stroke-opacity="1" stroke-width="12" d=" M38.119998931884766,21.815000534057617 C38.119998931884766,21.815000534057617 25.530000686645508,0.004999999888241291 25.530000686645508,0.004999999888241291 C25.530000686645508,0.004999999888241291 0,-44.224998474121094 0,-44.224998474121094 C0,-44.224998474121094 -25.530000686645508,0.004999999888241291 -25.530000686645508,0.004999999888241291 C-25.530000686645508,0.004999999888241291 -51.060001373291016,44.224998474121094 -51.060001373291016,44.224998474121094 C-51.060001373291016,44.224998474121094 25.190000534057617,44.224998474121094 25.190000534057617,44.224998474121094 C25.190000534057617,44.224998474121094 51.060001373291016,44.224998474121094 51.060001373291016,44.224998474121094"/></g><g opacity="1" transform="matrix(1,0,0,1,347.15301513671875,276.1759948730469)"><path stroke-linecap="round" stroke-linejoin="round" fill-opacity="0" class="primary" stroke="rgb(136,47,232)" stroke-opacity="1" stroke-width="12" d=" M0,-21.820999145507812 C0,-21.820999145507812 12.597999572753906,0 12.597999572753906,0 C12.597999572753906,0 25.19700050354004,21.820999145507812 25.19700050354004,21.820999145507812 C25.19700050354004,21.820999145507812 0,21.820999145507812 0,21.820999145507812 C0,21.820999145507812 -25.19700050354004,21.820999145507812 -25.19700050354004,21.820999145507812 C-25.19700050354004,21.820999145507812 -12.597999572753906,0 -12.597999572753906,0 C-12.597999572753906,0 0,-21.820999145507812 0,-21.820999145507812z"/></g><g opacity="1" transform="matrix(1,0,0,1,308.8680114746094,234.49099731445312)"><path stroke-linecap="round" stroke-linejoin="round" fill-opacity="0" class="primary" stroke="rgb(136,47,232)" stroke-opacity="1" stroke-width="12" d=" M63.50600051879883,63.50600051879883 C63.50600051879883,63.50600051879883 -63.50600051879883,63.50600051879883 -63.50600051879883,63.50600051879883 C-63.50600051879883,63.50600051879883 -63.50600051879883,-63.50600051879883 -63.50600051879883,-63.50600051879883 C-63.50600051879883,-63.50600051879883 63.50600051879883,-63.50600051879883 63.50600051879883,-63.50600051879883 C63.50600051879883,-63.50600051879883 63.50600051879883,63.50600051879883 63.50600051879883,63.50600051879883z"/></g><g opacity="1" transform="matrix(1,0,0,1,337.9739990234375,206.14500427246094)"><path stroke-linecap="round" stroke-linejoin="round" fill-opacity="0" class="secondary" stroke="rgb(136,47,232)" stroke-opacity="1" stroke-width="12" d=" M12.125,0 C12.125,-6.696000099182129 6.696000099182129,-12.125 0,-12.125 C-6.696000099182129,-12.125 -12.125,-6.696000099182129 -12.125,0 C-12.125,6.696000099182129 -6.696000099182129,12.125 0,12.125 C6.696000099182129,12.125 12.125,6.696000099182129 12.125,0z"/></g></g><g opacity="1" transform="matrix(1,0,0,1,308.8559875488281,350.9989929199219)"><path stroke-linecap="round" stroke-linejoin="round" fill-opacity="0" class="primary" stroke="rgb(136,47,232)" stroke-opacity="1" stroke-width="12" d=" M63.49399948120117,0 C63.49399948120117,0 -63.49399948120117,0 -63.49399948120117,0"/></g><g opacity="1" transform="matrix(1,0,0,1,277.1090087890625,378)"><path stroke-linecap="round" stroke-linejoin="round" fill-opacity="0" class="primary" stroke="rgb(136,47,232)" stroke-opacity="1" stroke-width="12" d=" M31.746999740600586,0 C31.746999740600586,0 -31.746999740600586,0 -31.746999740600586,0"/></g></g></g></g><g transform="matrix(1,0,0,1,-35,-35)" opacity="1" style="display: block;"><g opacity="1" transform="matrix(1,0,0,1,250,250)"><path stroke-linecap="round" stroke-linejoin="round" fill-opacity="0" class="primary" stroke="rgb(136,47,232)" stroke-opacity="1" stroke-width="12" d=" M137.71200561523438,160.11900329589844 C137.71200561523438,160.11900329589844 -137.71200561523438,160.11900329589844 -137.71200561523438,160.11900329589844 C-150.08700561523438,160.11900329589844 -160.11900329589844,150.08700561523438 -160.11900329589844,137.71200561523438 C-160.11900329589844,137.71200561523438 -160.11900329589844,-137.71200561523438 -160.11900329589844,-137.71200561523438 C-160.11900329589844,-150.08700561523438 -150.08700561523438,-160.11900329589844 -137.71200561523438,-160.11900329589844 C-137.71200561523438,-160.11900329589844 137.71200561523438,-160.11900329589844 137.71200561523438,-160.11900329589844 C150.08700561523438,-160.11900329589844 160.11900329589844,-150.08700561523438 160.11900329589844,-137.71200561523438 C160.11900329589844,-137.71200561523438 160.11900329589844,137.71200561523438 160.11900329589844,137.71200561523438 C160.11900329589844,150.08700561523438 150.08700561523438,160.11900329589844 137.71200561523438,160.11900329589844z"/></g><g opacity="1" transform="matrix(1,0,0,1,249,141.25399780273438)"><path stroke-linecap="round" stroke-linejoin="round" fill-opacity="0" class="primary" stroke="rgb(136,47,232)" stroke-opacity="1" stroke-width="12" d=" M159.11900329589844,0 C159.11900329589844,0 -159.11900329589844,0 -159.11900329589844,0"/></g><g opacity="1" transform="matrix(1,0,0,1,0,0)"><g opacity="1" transform="matrix(1,0,0,1,177.9320068359375,115.56700134277344)"><path stroke-linecap="round" stroke-linejoin="round" fill-opacity="0" class="secondary" stroke="rgb(136,47,232)" stroke-opacity="1" stroke-width="15" d=" M-0.06800000369548798,0 C-0.06800000369548798,0 0.06800000369548798,0 0.06800000369548798,0"/></g><g opacity="1" transform="matrix(1,0,0,1,121.63600158691406,115.56700134277344)"><path stroke-linecap="round" stroke-linejoin="round" fill-opacity="0" class="secondary" stroke="rgb(136,47,232)" stroke-opacity="1" stroke-width="15" d=" M-0.06800000369548798,0 C-0.06800000369548798,0 0.06800000369548798,0 0.06800000369548798,0"/></g><g opacity="1" transform="matrix(1,0,0,1,149.78399658203125,115.56700134277344)"><path stroke-linecap="round" stroke-linejoin="round" fill-opacity="0" class="secondary" stroke="rgb(136,47,232)" stroke-opacity="1" stroke-width="15" d=" M-0.06800000369548798,0 C-0.06800000369548798,0 0.06800000369548798,0 0.06800000369548798,0"/></g></g><g opacity="1" transform="matrix(1,0,0,1,207.68499755859375,275.6860046386719)"><g opacity="1" transform="matrix(1,0,0,1,0,0)"><path stroke-linecap="round" stroke-linejoin="round" fill-opacity="0" class="primary" stroke="rgb(136,47,232)" stroke-opacity="1" stroke-width="12" d=" M0,-134.43299865722656 C0,-134.43299865722656 0,134.43299865722656 0,134.43299865722656"/></g></g><g opacity="1" transform="matrix(1,0,0,1,147.29400634765625,203.92599487304688)"><path stroke-linecap="round" stroke-linejoin="round" fill-opacity="0" class="primary" stroke="rgb(136,47,232)" stroke-opacity="1" stroke-width="12" d=" M33.98500061035156,0 C33.98500061035156,18.770000457763672 18.770000457763672,33.98500061035156 0,33.98500061035156 C-18.770000457763672,33.98500061035156 -33.98500061035156,18.770000457763672 -33.98500061035156,0 C-33.98500061035156,-18.770000457763672 -18.770000457763672,-33.98500061035156 0,-33.98500061035156 C18.770000457763672,-33.98500061035156 33.98500061035156,-18.770000457763672 33.98500061035156,0z"/></g><g opacity="1" transform="matrix(1,0,0,1,147.28399658203125,268.10101318359375)"><path fill="rgb(255,255,255)" fill-opacity="1" d=" M-30.715999603271484,0 C-30.715999603271484,0 30.715999603271484,0 30.715999603271484,0"/><path stroke-linecap="round" stroke-linejoin="round" fill-opacity="0" class="secondary" stroke="rgb(136,47,232)" stroke-opacity="1" stroke-width="12" d=" M-30.715999603271484,0 C-30.715999603271484,0 30.715999603271484,0 30.715999603271484,0"/></g><g opacity="1" transform="matrix(1,0,0,1,157.75,295.7340087890625)"><path stroke-linecap="round" stroke-linejoin="round" fill-opacity="0" class="primary" stroke="rgb(136,47,232)" stroke-opacity="1" stroke-width="12" d=" M-20.25,0 C-20.25,0 20.25,0 20.25,0"/></g><g opacity="1" transform="matrix(1,0,0,1,116.97200012207031,295.7340087890625)"><path stroke-linecap="round" stroke-linejoin="round" fill-opacity="0" class="primary" stroke="rgb(136,47,232)" stroke-opacity="1" stroke-width="12" d=" M-0.4050000011920929,0 C-0.4050000011920929,0 0.4050000011920929,0 0.4050000011920929,0"/></g><g opacity="1" transform="matrix(1,0,0,1,147.28399658203125,323.3659973144531)"><path stroke-linecap="round" stroke-linejoin="round" fill-opacity="0" class="primary" stroke="rgb(136,47,232)" stroke-opacity="1" stroke-width="12" d=" M-30.715999603271484,0 C-30.715999603271484,0 30.715999603271484,0 30.715999603271484,0"/></g><g opacity="1" transform="matrix(1,0,0,1,147.28399658203125,350.9989929199219)"><path stroke-linecap="round" stroke-linejoin="round" fill-opacity="0" class="primary" stroke="rgb(136,47,232)" stroke-opacity="1" stroke-width="12" d=" M-30.715999603271484,0 C-30.715999603271484,0 30.715999603271484,0 30.715999603271484,0"/></g></g></g></g></svg>