<svg xmlns="http://www.w3.org/2000/svg" xmlns:xlink="http://www.w3.org/1999/xlink" viewBox="0 0 430 430" width="430" height="430" preserveAspectRatio="xMidYMid meet" style="width: 100%; height: 100%; transform: translate3d(0px, 0px, 0px); content-visibility: visible;"><defs><clipPath id="__lottie_element_4157"><rect width="430" height="430" x="0" y="0"/></clipPath><clipPath id="__lottie_element_4159"><path d="M0,0 L430,0 L430,430 L0,430z"/></clipPath><clipPath id="__lottie_element_4167"><path d="M0,0 L430,0 L430,430 L0,430z"/></clipPath></defs><g clip-path="url(#__lottie_element_4157)"><g clip-path="url(#__lottie_element_4159)" transform="matrix(1,0,0,1,0,0)" opacity="1" style="display: block;"><g clip-path="url(#__lottie_element_4167)" transform="matrix(0.9990951418876648,0.04253064841032028,-0.04253064841032028,0.9990951418876648,18.885921478271484,7.583551406860352)" opacity="1" style="display: block;"><g transform="matrix(1,0,0,1,215.30099487304688,215)" opacity="1" style="display: block;"><g opacity="1" transform="matrix(1,0,0,1,0,0)"><path stroke-linecap="round" stroke-linejoin="round" fill-opacity="0" class="secondary" stroke="rgb(136,47,232)" stroke-opacity="1" stroke-width="12" d=" M0.3924344480037689,70 C38.04387664794922,70 68.56627655029297,38.65999984741211 68.56627655029297,0 C68.56627655029297,-38.65999984741211 38.04387664794922,-70 0.3924344480037689,-70 C0.3919999897480011,-70 0.3919999897480011,-70 0.3919999897480011,-70"/></g></g><g transform="matrix(1,0,0,1,215.30099487304688,215)" opacity="1" style="display: block;"><g opacity="1" transform="matrix(1,0,0,1,0,0)"><path stroke-linecap="round" stroke-linejoin="round" fill-opacity="0" class="secondary" stroke="rgb(136,47,232)" stroke-opacity="1" stroke-width="12" d=" M-0.3924344480037689,70 C37.259010314941406,70 67.78141021728516,38.65999984741211 67.78141021728516,0 C67.78141021728516,-38.65999984741211 37.259010314941406,-70 -0.3924344480037689,-70 C-38.04387664794922,-70 -68.56627655029297,-38.65999984741211 -68.56627655029297,0 C-68.56627655029297,38.65999984741211 -38.04387664794922,70 -0.3924344480037689,70z"/></g><g opacity="1" transform="matrix(1,0,0,1,0,0)"><path stroke-linecap="round" stroke-linejoin="round" fill-opacity="0" class="secondary" stroke="rgb(136,47,232)" stroke-opacity="1" stroke-width="12" d=" M-0.3885391056537628,-40 C-0.3885391056537628,-40 -0.3885391056537628,-28.44499969482422 -0.3885391056537628,-28.44499969482422 M-0.3885391056537628,28.753999710083008 C-0.3885391056537628,28.753999710083008 -0.3885391056537628,40 -0.3885391056537628,40 M15.920602798461914,-28.44499969482422 C15.920602798461914,-28.44499969482422 -5.718771457672119,-28.44499969482422 -5.718771457672119,-28.44499969482422 C-13.435089111328125,-28.44499969482422 -19.682703018188477,-22.02899932861328 -19.682703018188477,-14.114999771118164 C-19.682703018188477,-6.191999912261963 -13.426324844360352,0.22300000488758087 -5.718771457672119,0.22300000488758087 C-5.718771457672119,0.22300000488758087 4.975777626037598,0.22300000488758087 4.975777626037598,0.22300000488758087 C12.683330535888672,0.22300000488758087 18.923152923583984,6.646999835968018 18.89783477783203,14.553000450134277 C18.872514724731445,22.47599983215332 12.582999229431152,28.865999221801758 5.125748634338379,28.805999755859375 C5.125748634338379,28.805999755859375 -19.25808334350586,28.591999053955078 -19.25808334350586,28.591999053955078"/></g></g></g><g transform="matrix(0.9990951418876648,0.04253064841032028,-0.04253064841032028,0.9990951418876648,224.5472869873047,231.53309631347656)" opacity="1" style="display: block;"><g opacity="1" transform="matrix(1,0,0,1,0,0)"><path stroke-linecap="round" stroke-linejoin="round" fill-opacity="0" class="primary" stroke="rgb(136,47,232)" stroke-opacity="1" stroke-width="12" d=" M-30,-150 C-30,-150 30,-150 30,-150 M-45,150 C-45,150 45,150 45,150"/></g><g opacity="1" transform="matrix(1,0,0,1,0,0)"><path stroke-linecap="round" stroke-linejoin="round" fill-opacity="0" class="primary" stroke="rgb(136,47,232)" stroke-opacity="1" stroke-width="12" d=" M-90,-185 C-101.0459976196289,-185 -110,-176.04600524902344 -110,-165 C-110,-165 -110,165 -110,165 C-110,176.04600524902344 -101.0459976196289,185 -90,185 C-90,185 90,185 90,185 C101.0459976196289,185 110,176.04600524902344 110,165 C110,165 110,-165 110,-165 C110,-176.04600524902344 101.0459976196289,-185 90,-185 C90,-185 -90,-185 -90,-185z"/></g></g></g></g></svg>