<svg xmlns="http://www.w3.org/2000/svg" xmlns:xlink="http://www.w3.org/1999/xlink" viewBox="0 0 430 430" width="430" height="430" preserveAspectRatio="xMidYMid meet" style="width: 100%; height: 100%; transform: translate3d(0px, 0px, 0px); content-visibility: visible;"><defs><clipPath id="__lottie_element_4586"><rect width="430" height="430" x="0" y="0"/></clipPath><clipPath id="__lottie_element_4588"><path d="M0,0 L430,0 L430,430 L0,430z"/></clipPath></defs><g clip-path="url(#__lottie_element_4586)"><g clip-path="url(#__lottie_element_4588)" transform="matrix(1,0,0,1,0,0)" opacity="1" style="display: block;"><g transform="matrix(1,0,0,1,342.4939880371094,341.5840148925781)" opacity="1" style="display: block;"><g opacity="1" transform="matrix(1,0,0,1,0,0)"><path stroke-linecap="round" stroke-linejoin="round" fill-opacity="0" class="secondary" stroke="rgb(136,47,232)" stroke-opacity="1" stroke-width="12.04" d=" M0,-40.029998779296875 C0,-40.029998779296875 13.005999565124512,-13.675999641418457 13.005999565124512,-13.675999641418457 C13.005999565124512,-13.675999641418457 42.09000015258789,-9.449999809265137 42.09000015258789,-9.449999809265137 C42.09000015258789,-9.449999809265137 21.045000076293945,11.064000129699707 21.045000076293945,11.064000129699707 C21.045000076293945,11.064000129699707 26.01300048828125,40.029998779296875 26.01300048828125,40.029998779296875 C26.01300048828125,40.029998779296875 0,26.354000091552734 0,26.354000091552734 C0,26.354000091552734 -26.01300048828125,40.029998779296875 -26.01300048828125,40.029998779296875 C-26.01300048828125,40.029998779296875 -21.045000076293945,11.064000129699707 -21.045000076293945,11.064000129699707 C-21.045000076293945,11.064000129699707 -42.09000015258789,-9.449999809265137 -42.09000015258789,-9.449999809265137 C-42.09000015258789,-9.449999809265137 -13.005999565124512,-13.675999641418457 -13.005999565124512,-13.675999641418457 C-13.005999565124512,-13.675999641418457 0,-40.029998779296875 0,-40.029998779296875z"/></g></g><g transform="matrix(1,0,0,1,215,344.0889892578125)" opacity="1" style="display: block;"><g opacity="1" transform="matrix(1,0,0,1,0,0)"><path stroke-linecap="round" stroke-linejoin="round" fill-opacity="0" class="secondary" stroke="rgb(136,47,232)" stroke-opacity="1" stroke-width="12.04" d=" M0,-40.029998779296875 C0,-40.029998779296875 13.005999565124512,-13.675999641418457 13.005999565124512,-13.675999641418457 C13.005999565124512,-13.675999641418457 42.09000015258789,-9.449999809265137 42.09000015258789,-9.449999809265137 C42.09000015258789,-9.449999809265137 21.045000076293945,11.064000129699707 21.045000076293945,11.064000129699707 C21.045000076293945,11.064000129699707 26.01300048828125,40.029998779296875 26.01300048828125,40.029998779296875 C26.01300048828125,40.029998779296875 0,26.354000091552734 0,26.354000091552734 C0,26.354000091552734 -26.01300048828125,40.029998779296875 -26.01300048828125,40.029998779296875 C-26.01300048828125,40.029998779296875 -21.045000076293945,11.064000129699707 -21.045000076293945,11.064000129699707 C-21.045000076293945,11.064000129699707 -42.09000015258789,-9.449999809265137 -42.09000015258789,-9.449999809265137 C-42.09000015258789,-9.449999809265137 -13.005999565124512,-13.675999641418457 -13.005999565124512,-13.675999641418457 C-13.005999565124512,-13.675999641418457 0,-40.029998779296875 0,-40.029998779296875z"/></g></g><g transform="matrix(1,0,0,1,90,340.7030029296875)" opacity="1" style="display: block;"><g opacity="1" transform="matrix(1,0,0,1,0,0)"><path stroke-linecap="round" stroke-linejoin="round" fill-opacity="0" class="secondary" stroke="rgb(136,47,232)" stroke-opacity="1" stroke-width="12.04" d=" M0,-40.029998779296875 C0,-40.029998779296875 13.005999565124512,-13.675999641418457 13.005999565124512,-13.675999641418457 C13.005999565124512,-13.675999641418457 42.09000015258789,-9.449999809265137 42.09000015258789,-9.449999809265137 C42.09000015258789,-9.449999809265137 21.045000076293945,11.064000129699707 21.045000076293945,11.064000129699707 C21.045000076293945,11.064000129699707 26.01300048828125,40.029998779296875 26.01300048828125,40.029998779296875 C26.01300048828125,40.029998779296875 0,26.354000091552734 0,26.354000091552734 C0,26.354000091552734 -26.01300048828125,40.029998779296875 -26.01300048828125,40.029998779296875 C-26.01300048828125,40.029998779296875 -21.045000076293945,11.064000129699707 -21.045000076293945,11.064000129699707 C-21.045000076293945,11.064000129699707 -42.09000015258789,-9.449999809265137 -42.09000015258789,-9.449999809265137 C-42.09000015258789,-9.449999809265137 -13.005999565124512,-13.675999641418457 -13.005999565124512,-13.675999641418457 C-13.005999565124512,-13.675999641418457 0,-40.029998779296875 0,-40.029998779296875z"/></g></g><g transform="matrix(1,0,0,1,215,137.5)" opacity="1" style="display: block;"><g opacity="1" transform="matrix(1,0,0,1,0,0)"><path stroke-linecap="butt" stroke-linejoin="round" fill-opacity="0" class="primary" stroke="rgb(136,47,232)" stroke-opacity="1" stroke-width="12" d=" M-64,-16.023000717163086 C-64,-16.023000717163086 -61.2859992980957,-16.023000717163086 -61.2859992980957,-16.023000717163086 C-35.80799865722656,-16.023000717163086 -14.404999732971191,-35.18000030517578 -11.592000007629395,-60.50199890136719 C-11.592000007629395,-60.50199890136719 -6.730999946594238,-104.25499725341797 -6.730999946594238,-104.25499725341797 C-5.89300012588501,-111.79499816894531 0.4790000021457672,-117.5 8.0649995803833,-117.5 C27.249000549316406,-117.5 42.80099868774414,-101.94499969482422 42.80099868774414,-82.75800323486328 C42.80099868774414,-82.75800323486328 42.80099868774414,-26.704999923706055 42.80099868774414,-26.704999923706055 C42.80099868774414,-26.704999923706055 97.29399871826172,-26.704999923706055 97.29399871826172,-26.704999923706055 C113.5979995727539,-26.704999923706055 126.09500122070312,-12.217000007629395 123.70600128173828,3.9140000343322754 C123.70600128173828,3.9140000343322754 110.25700378417969,94.70899963378906 110.25700378417969,94.70899963378906 C108.31700134277344,107.8030014038086 97.08000183105469,117.5 83.84500122070312,117.5 C83.84500122070312,117.5 -15.9399995803833,117.5 -15.9399995803833,117.5 C-15.9399995803833,117.5 -64,96.13600158691406 -64,96.13600158691406 M-64,-26.5 C-64,-26.5 -124,-26.5 -124,-26.5 C-124,-26.5 -124,107.5 -124,107.5 C-124,107.5 -64,107.5 -64,107.5 C-64,107.5 -64,-26.5 -64,-26.5z"/></g></g></g></g></svg>